#Comment line ignore any data following # character 
#Hierarchical Translation and Rotation (.htr) file 
[Header]	
#Header keywords are followed by a single value 
FileType HTR		#Single word string
DataType HTRS		#Translation followed by rotation and scale data
FileVersion 1		#integer
NumSegments 25		#integer
NumFrames 4		#integer
DataFrameRate 30		#integer, data frame rate in this file
EulerRotationOrder ZYX
CalibrationUnits mm
RotationUnits Degrees
GlobalAxisofGravity Y
BoneLengthAxis Y
ScaleFactor 1.00
[SegmentNames&Hierarchy]
#CHILD	PARENT
BN_Tick_Root GLOBAL
BN_Torso BN_Tick_Root
BN_L_Leg_Front01 BN_Torso
BN_L_Leg_Rear01 BN_Torso
BN_MetalTop BN_Torso
BN_Neck BN_Torso
BN_R_Leg_Front01 BN_Torso
BN_R_Leg_Rear01 BN_Torso
BN_Sack BN_Torso
BN_L_Leg_Front02 BN_L_Leg_Front01
BN_L_Leg_Front03 BN_L_Leg_Front02
BN_L_Leg_Rear02 BN_L_Leg_Rear01
BN_L_Leg_Rear03 BN_L_Leg_Rear02
BN_Head BN_Neck
BN_Needle BN_Head
BN_R_Leg_Front02 BN_R_Leg_Front01
BN_R_Leg_Front03 BN_R_Leg_Front02
BN_R_Leg_Rear02 BN_R_Leg_Rear01
BN_R_Leg_Rear03 BN_R_Leg_Rear02
BN_SackDef01 BN_Sack
BN_SackDef02 BN_Sack
BN_SackDef03 BN_Sack
BN_SackDef04 BN_Sack
BN_SackDef05 BN_Sack
BN_SackDef06 BN_Sack
[BasePosition]
#SegmentName Tx, Ty, Tz, Rx, Ry, Rz, BoneLength
BN_Tick_Root 0.000000 0.000000 0.000000 -90.000000 0.000000 0.000000 10.000000 
BN_Torso 0.000000 0.000000 0.000000 0.000000 0.000000 0.000000 10.000000 
BN_L_Leg_Front01 0.000000 0.000000 0.000000 0.000000 0.000000 0.000000 10.000000 
BN_L_Leg_Rear01 0.000000 0.000000 0.000000 0.000000 0.000000 0.000000 10.000000 
BN_MetalTop 0.000000 0.000000 0.000000 0.000000 0.000000 0.000000 10.000000 
BN_Neck 0.000000 0.000000 0.000000 0.000000 0.000000 0.000000 10.000000 
BN_R_Leg_Front01 0.000000 0.000000 0.000000 0.000000 0.000000 0.000000 10.000000 
BN_R_Leg_Rear01 0.000000 0.000000 0.000000 0.000000 0.000000 0.000000 10.000000 
BN_Sack 0.000000 0.000000 0.000000 0.000000 0.000000 0.000000 10.000000 
BN_L_Leg_Front02 0.000000 0.000000 0.000000 0.000000 0.000000 0.000000 10.000000 
BN_L_Leg_Front03 0.000000 0.000000 0.000000 0.000000 0.000000 0.000000 10.000000 
BN_L_Leg_Rear02 0.000000 0.000000 0.000000 0.000000 0.000000 0.000000 10.000000 
BN_L_Leg_Rear03 0.000000 0.000000 0.000000 0.000000 0.000000 0.000000 10.000000 
BN_Head 0.000000 0.000000 0.000000 0.000000 0.000000 0.000000 10.000000 
BN_Needle 0.000000 0.000000 0.000000 0.000000 0.000000 0.000000 10.000000 
BN_R_Leg_Front02 0.000000 0.000000 0.000000 0.000000 0.000000 0.000000 10.000000 
BN_R_Leg_Front03 0.000000 0.000000 0.000000 0.000000 0.000000 0.000000 10.000000 
BN_R_Leg_Rear02 0.000000 0.000000 0.000000 0.000000 0.000000 0.000000 10.000000 
BN_R_Leg_Rear03 0.000000 0.000000 0.000000 0.000000 0.000000 0.000000 10.000000 
BN_SackDef01 0.000000 0.000000 0.000000 0.000000 0.000000 0.000000 10.000000 
BN_SackDef02 0.000000 0.000000 0.000000 0.000000 0.000000 0.000000 10.000000 
BN_SackDef03 0.000000 0.000000 0.000000 0.000000 0.000000 0.000000 10.000000 
BN_SackDef04 0.000000 0.000000 0.000000 0.000000 0.000000 0.000000 10.000000 
BN_SackDef05 0.000000 0.000000 0.000000 0.000000 0.000000 0.000000 10.000000 
BN_SackDef06 0.000000 0.000000 0.000000 0.000000 0.000000 0.000000 10.000000 
#Beginning of Data. Separated by tabs
#Fr	Tx	Ty	Tz	Rx	Ry	Rz	SF
[BN_Tick_Root]
85 0.000000 0.000000 0.000000 0.000000 0.000000 -0.000020 0.000000
86 0.000000 0.000000 0.000000 0.000000 0.000000 -0.000020 0.000000
87 0.000000 0.000000 0.000000 0.000000 0.000000 -0.000020 0.000000
88 0.000000 0.000000 0.000000 0.000000 0.000000 -0.000020 0.000000
[BN_Torso]
85 10.022041 31.810831 206.720535 -21.329262 -3.392824 3.742584 209.393768
86 10.022041 31.810827 206.720535 -21.331108 -3.392197 3.933933 209.393768
87 10.022041 31.810827 206.720535 -21.332943 -3.391562 4.125279 209.393768
88 10.022041 31.810827 206.720535 -21.334875 -3.390938 4.316643 209.393768
[BN_L_Leg_Front01]
85 -68.477791 10.734189 -26.804373 -67.799515 33.717667 131.793839 74.316254
86 -68.477791 10.734189 -26.804373 -67.718651 33.651039 131.632111 74.316254
87 -68.477791 10.734189 -26.804373 -67.637634 33.584602 131.470413 74.316254
88 -68.477791 10.734189 -26.804373 -67.556450 33.518349 131.308716 74.316254
[BN_L_Leg_Rear01]
85 -72.133743 -73.994843 -18.268616 23.493513 61.028156 -170.227615 104.939293
86 -72.133743 -73.994843 -18.268616 23.480392 60.930710 -170.493851 104.939293
87 -72.133743 -73.994843 -18.268616 23.468239 60.833237 -170.759216 104.939293
88 -72.133743 -73.994843 -18.268616 23.457048 60.735744 -171.023727 104.939293
[BN_MetalTop]
85 0.000008 13.737477 26.403606 92.251366 -17.585709 -97.417938 29.763546
86 0.000008 13.737477 26.403606 92.251366 -17.585709 -97.417938 29.763546
87 0.000008 13.737477 26.403606 92.251366 -17.585709 -97.417938 29.763546
88 0.000008 13.737477 26.403606 92.251366 -17.585709 -97.417938 29.763546
[BN_Neck]
85 0.000014 95.233284 10.002091 -89.999672 -65.297531 89.999657 95.757088
86 0.000014 95.233284 10.002091 -89.999672 -65.297531 89.999657 95.757088
87 0.000014 95.233284 10.002091 -89.999672 -65.297531 89.999657 95.757088
88 0.000014 95.233284 10.002091 -89.999672 -65.297531 89.999657 95.757088
[BN_R_Leg_Front01]
85 68.477768 10.734107 -26.804314 75.221779 43.185173 53.634933 74.316193
86 68.477768 10.734107 -26.804314 75.309837 43.266972 53.483364 74.316193
87 68.477768 10.734107 -26.804314 75.397751 43.348957 53.331795 74.316193
88 68.477768 10.734107 -26.804314 75.485443 43.431095 53.180164 74.316193
[BN_R_Leg_Rear01]
85 72.133751 -73.994873 -18.268644 23.006508 75.752213 35.981758 104.939331
86 72.133751 -73.994873 -18.268644 23.200089 75.859657 35.860374 104.939331
87 72.133751 -73.994873 -18.268644 23.394175 75.967117 35.739555 104.939331
88 72.133751 -73.994873 -18.268644 23.588800 76.074745 35.619354 104.939331
[BN_Sack]
85 -0.000000 -78.024918 33.657791 91.379875 -11.014523 -97.199577 84.974907
86 -0.000000 -78.024918 33.657791 91.379875 -11.014523 -97.199577 84.974907
87 -0.000000 -78.024918 33.657791 91.379875 -11.014523 -97.199570 84.974907
88 -0.000000 -78.024918 33.657791 91.379875 -11.014523 -97.199577 84.974907
[BN_L_Leg_Front02]
85 142.805023 -0.000015 -0.000104 0.115170 0.516331 -114.075150 142.805023
86 142.805023 -0.000015 -0.000104 0.115618 0.515579 -114.007919 142.805023
87 142.805023 -0.000015 -0.000104 0.116066 0.514827 -113.940712 142.805023
88 142.805023 -0.000015 -0.000104 0.116514 0.514074 -113.873474 142.805023
[BN_L_Leg_Front03]
85 124.143021 -0.000045 0.000007 0.352925 -0.378253 122.679390 124.143021
86 124.143021 -0.000045 0.000007 0.352696 -0.378299 122.617371 124.143021
87 124.143021 -0.000045 0.000007 0.352467 -0.378346 122.555359 124.143021
88 124.143021 -0.000045 0.000007 0.352238 -0.378393 122.493355 124.143021
[BN_L_Leg_Rear02]
85 139.939041 0.000075 -0.000022 0.082408 -0.229817 95.110161 139.939041
86 139.939041 0.000075 -0.000022 0.083030 -0.231251 95.117523 139.939041
87 139.939041 0.000075 -0.000022 0.083651 -0.232685 95.124893 139.939041
88 139.939041 0.000075 -0.000022 0.084272 -0.234119 95.132248 139.939041
[BN_L_Leg_Rear03]
85 142.839615 0.000179 -0.000060 0.000484 -0.002297 -113.810143 142.839615
86 142.839615 0.000179 -0.000060 0.000484 -0.002297 -113.817810 142.839615
87 142.839615 0.000179 -0.000060 0.000485 -0.002297 -113.825478 142.839615
88 142.839615 0.000179 -0.000060 0.000485 -0.002297 -113.833160 142.839615
[BN_Head]
85 57.062447 -0.000030 0.000000 -0.299093 8.145823 -10.407961 57.062447
86 57.062447 -0.000030 0.000000 -0.455271 8.256193 -10.421766 57.062447
87 57.062447 -0.000030 0.000000 -0.611519 8.366528 -10.435884 57.062447
88 57.062447 -0.000030 0.000000 -0.767840 8.476822 -10.450305 57.062447
[BN_Needle]
85 33.915161 69.677544 -0.000060 0.000003 0.000030 87.896805 77.493217
86 33.915161 69.677544 -0.000060 0.000003 0.000030 87.896805 77.493217
87 33.915161 69.677544 -0.000060 0.000003 0.000030 87.896805 77.493217
88 33.915161 69.677544 -0.000060 0.000003 0.000030 87.896805 77.493217
[BN_R_Leg_Front02]
85 142.804947 -0.000060 0.000060 -0.071335 0.614689 122.895050 142.804947
86 142.804947 -0.000060 0.000060 -0.070765 0.615402 122.964279 142.804947
87 142.804947 -0.000060 0.000060 -0.070195 0.616115 123.033508 142.804947
88 142.804947 -0.000060 0.000060 -0.069623 0.616828 123.102753 142.804947
[BN_R_Leg_Front03]
85 124.143005 -0.000060 -0.000156 -0.353442 -0.342716 -130.223053 124.143005
86 124.143005 -0.000060 -0.000156 -0.353068 -0.342438 -130.278641 124.143005
87 124.143005 -0.000060 -0.000156 -0.352693 -0.342160 -130.334229 124.143005
88 124.143005 -0.000060 -0.000156 -0.352320 -0.341881 -130.389847 124.143005
[BN_R_Leg_Rear02]
85 139.939011 -0.000149 0.000015 0.005294 -0.248362 -120.800804 139.939011
86 139.939011 -0.000149 0.000015 0.005196 -0.249467 -120.782593 139.939011
87 139.939011 -0.000149 0.000015 0.005097 -0.250572 -120.764381 139.939011
88 139.939011 -0.000149 0.000015 0.004998 -0.251677 -120.746193 139.939011
[BN_R_Leg_Rear03]
85 142.839417 0.000075 0.000119 0.002143 -0.000956 138.095596 142.839417
86 142.839417 0.000075 0.000119 0.002144 -0.000956 138.082352 142.839417
87 142.839417 0.000075 0.000119 0.002144 -0.000956 138.069138 142.839417
88 142.839417 0.000075 0.000119 0.002144 -0.000956 138.055878 142.839417
[BN_SackDef01]
85 249.782272 -3.760844 42.949425 -128.408218 -44.374973 -11.740845 253.475800
86 249.782272 -3.760844 42.949425 -128.408218 -44.374973 -11.740845 253.475800
87 249.782272 -3.760844 42.949425 -128.408218 -44.374973 -11.740845 253.475800
88 249.782272 -3.760844 42.949425 -128.408218 -44.374973 -11.740845 253.475800
[BN_SackDef02]
85 138.789795 -62.131748 45.674385 32.077126 -27.375721 -88.781525 158.773758
86 138.789795 -62.131748 45.674385 32.077126 -27.375721 -88.781525 158.773758
87 138.789795 -62.131748 45.674385 32.077126 -27.375721 -88.781525 158.773758
88 138.789795 -62.131748 45.674385 32.077126 -27.375721 -88.781525 158.773758
[BN_SackDef03]
85 249.782272 -3.760785 -42.949661 18.144459 44.375008 -11.740894 253.475845
86 249.782272 -3.760785 -42.949661 18.144459 44.375008 -11.740894 253.475845
87 249.782272 -3.760785 -42.949661 18.144459 44.375008 -11.740894 253.475845
88 249.782272 -3.760785 -42.949661 18.144459 44.375008 -11.740894 253.475845
[BN_SackDef04]
85 138.789780 -62.131645 -45.674473 146.059982 27.375723 -88.781555 158.773743
86 138.789780 -62.131645 -45.674473 146.059982 27.375723 -88.781555 158.773743
87 138.789780 -62.131645 -45.674473 146.059982 27.375723 -88.781555 158.773743
88 138.789780 -62.131645 -45.674473 146.059982 27.375723 -88.781555 158.773743
[BN_SackDef05]
85 118.790161 46.167137 -63.831196 0.155741 51.314110 90.605110 142.537460
86 118.790161 46.167137 -63.831196 0.155741 51.314110 90.605110 142.537460
87 118.790161 46.167137 -63.831196 0.155741 51.314110 90.605110 142.537460
88 118.790161 46.167137 -63.831196 0.155741 51.314110 90.605110 142.537460
[BN_SackDef06]
85 118.790207 46.167194 63.831219 152.058487 -51.314072 90.605019 142.537537
86 118.790207 46.167194 63.831219 152.058487 -51.314072 90.605019 142.537537
87 118.790207 46.167194 63.831219 152.058487 -51.314072 90.605019 142.537537
88 118.790207 46.167194 63.831219 152.058487 -51.314072 90.605019 142.537537
